<?xml version="1.0" encoding="utf-8"?>
<!-- Generator: Adobe Illustrator 19.0.0, SVG Export Plug-In . SVG Version: 6.00 Build 0)  -->
<svg version="1.1" id="Layer_1" xmlns="http://www.w3.org/2000/svg" xmlns:xlink="http://www.w3.org/1999/xlink" x="0px" y="0px"
	 viewBox="0 0 69.8 42.4" style="enable-background:new 0 0 69.8 42.4;" xml:space="preserve">
<style type="text/css">
	.st0{fill:#FFFFFF;}
	.st1{fill:none;stroke:#FFFFFF;stroke-width:6.281681e-02;stroke-linecap:square;stroke-miterlimit:10;}
</style>
<g>
	<polygon class="st0" points="69.3,38.4 69.3,38 60.5,42 61.6,42 	"/>
	<g id="XMLID_1_">
		<path id="XMLID_40_" class="st0" d="M69.3,0.5v41.4H0.5V0.5H69.3 M69.8,0H0v42.4h69.8V0L69.8,0z"/>
	</g>
	<polygon class="st0" points="28.7,42 69.3,0.8 69.3,0.5 69.1,0.5 28.1,42 	"/>
	<polygon class="st0" points="3.1,42 5.9,0.5 5.4,0.5 2.8,42 	"/>
	<polygon class="st0" points="5.3,42 11.3,0.5 10.8,0.5 4.9,42 	"/>
	<polygon class="st0" points="7.7,42 16.9,0.5 16.6,0.5 7.2,42 	"/>
	<polygon class="st0" points="10.2,42 23.5,0.5 23.1,0.5 9.8,42 	"/>
	<polygon class="st0" points="12.7,42 29.7,0.5 29.2,0.5 12.2,42 	"/>
	<polygon class="st0" points="15.5,42 36.8,0.5 36.3,0.5 15,42 	"/>
	<polygon class="st0" points="47.3,0.5 46.8,0.5 19.3,42 19.8,42 	"/>
	<polygon class="st0" points="57.2,0.5 56.7,0.5 23.2,42 23.8,42 	"/>
	<polygon class="st0" points="69.3,16.2 69.3,15.6 36.1,42 36.9,42 	"/>
	<polygon class="st0" points="69.3,27.6 69.3,27.1 45.5,42 46.2,42 	"/>
	<polygon class="st0" points="15.9,29.3 15.9,29.3 14.5,29.3 13.3,29.2 12.1,28.9 10.9,28.6 10,28.1 8.9,27.6 8,27 7.2,26.3 
		6.4,25.5 5.8,24.6 5.2,23.7 4.7,22.6 4.3,21.5 4.1,20.3 3.8,19.1 3.8,17.8 4,16.5 4.1,15.3 4.3,14.2 4.8,13 5.3,12 5.9,10.9 
		6.5,10.1 7.3,9.2 8.2,8.5 9.1,7.8 10.1,7.3 11.2,6.8 12.2,6.5 13.5,6.1 14.7,6 16,5.9 17.3,6 18.7,6.2 20.1,6.5 21.4,7 21.4,10.5 
		20.7,9.6 20.1,9.1 19.6,8.6 18.9,8.3 18,7.9 17.1,7.7 16,7.7 15.3,7.7 14.4,7.8 13.8,8 13.1,8.3 12.5,8.8 12,9.1 11.4,9.7 11,10.3 
		10.6,11.1 10.2,11.8 9.7,13.3 9.4,15.3 9.2,17.3 9.4,19.5 9.7,21.5 10.2,23.2 10.6,24 11,24.7 11.5,25.3 12,25.9 12.6,26.4 
		13.2,26.8 13.9,27.1 14.8,27.4 15.6,27.5 16.5,27.6 17.2,27.5 17.8,27.4 19.2,27 20.4,26.4 21.4,25.8 22.1,27.6 21.3,28.2 
		19.9,28.7 19.2,28.9 18.3,29.2 17.2,29.3 	"/>
	<polygon class="st1" points="15.9,29.3 15.9,29.3 14.5,29.3 13.3,29.2 12.1,28.9 10.9,28.6 10,28.1 8.9,27.6 8,27 7.2,26.3 
		6.4,25.5 5.8,24.6 5.2,23.7 4.7,22.6 4.3,21.5 4.1,20.3 3.8,19.1 3.8,17.8 4,16.5 4.1,15.3 4.3,14.2 4.8,13 5.3,12 5.9,10.9 
		6.5,10.1 7.3,9.2 8.2,8.5 9.1,7.8 10.1,7.3 11.2,6.8 12.2,6.5 13.5,6.1 14.7,6 16,5.9 17.3,6 18.7,6.2 20.1,6.5 21.4,7 21.4,10.5 
		20.7,9.6 20.1,9.1 19.6,8.6 18.9,8.3 18,7.9 17.1,7.7 16,7.7 15.3,7.7 14.4,7.8 13.8,8 13.1,8.3 12.5,8.8 12,9.1 11.4,9.7 11,10.3 
		10.6,11.1 10.2,11.8 9.7,13.3 9.4,15.3 9.2,17.3 9.4,19.5 9.7,21.5 10.2,23.2 10.6,24 11,24.7 11.5,25.3 12,25.9 12.6,26.4 
		13.2,26.8 13.9,27.1 14.8,27.4 15.6,27.5 16.5,27.6 17.2,27.5 17.8,27.4 19.2,27 20.4,26.4 21.4,25.8 22.1,27.6 21.3,28.2 
		19.9,28.7 19.2,28.9 18.3,29.2 17.2,29.3 	"/>
	<path class="st0" d="M39.3,17.7L39.3,17.7v1.6L39,20.7l-0.2,1.2l-0.5,1l-0.4,1l-0.6,0.7l-0.6,0.7L36,25.7l-0.7,0.5l-0.7,0.2
		l-0.8,0.2l-0.8,0.2l-1.7,0.2h-1.6V8h1.6l1.7,0.2l0.8,0.1l0.8,0.2L35.3,9L36,9.5l0.7,0.5l0.6,0.7l0.6,0.7l0.5,1l0.4,1.1l0.2,1.2
		l0.2,1.4V17.7z M33.6,28.9L33.6,28.9l1.7-0.1l1-0.2l0.8-0.2l1-0.2l1-0.5l0.8-0.5l0.8-0.6l0.8-0.7l0.7-0.8l0.6-1l0.6-1l0.5-1.2
		l0.4-1.3l0.2-1.4v-1.6V16l-0.2-1.6L44,13.1l-0.5-1.2l-0.6-1l-0.6-1l-0.7-0.8l-0.8-0.6l-1-0.6l-0.8-0.5l-1-0.4l-1-0.2l-1.1-0.2
		l-1-0.1L33,6.4h-8.2v22.6H33.6z"/>
	<path class="st1" d="M39.3,17.7L39.3,17.7v1.6L39,20.7l-0.2,1.2l-0.5,1l-0.4,1l-0.6,0.7l-0.6,0.7L36,25.7l-0.7,0.5l-0.7,0.2
		l-0.8,0.2l-0.8,0.2l-1.7,0.2h-1.6V8h1.6l1.7,0.2l0.8,0.1l0.8,0.2L35.3,9L36,9.5l0.7,0.5l0.6,0.7l0.6,0.7l0.5,1l0.4,1.1l0.2,1.2
		l0.2,1.4V17.7z M33.6,28.9L33.6,28.9l1.7-0.1l1-0.2l0.8-0.2l1-0.2l1-0.5l0.8-0.5l0.8-0.6l0.8-0.7l0.7-0.8l0.6-1l0.6-1l0.5-1.2
		l0.4-1.3l0.2-1.4v-1.6V16l-0.2-1.6L44,13.1l-0.5-1.2l-0.6-1l-0.6-1l-0.7-0.8l-0.8-0.6l-1-0.6l-0.8-0.5l-1-0.4l-1-0.2l-1.1-0.2
		l-1-0.1L33,6.4h-8.2v22.6H33.6z"/>
	<polygon class="st0" points="59.2,29.3 59.2,29.3 57.9,29.3 56.7,29.2 55.5,28.9 54.4,28.6 53.3,28.1 52.4,27.6 51.4,27 50.6,26.3 
		49.8,25.5 49.1,24.6 48.5,23.7 48.2,22.6 47.7,21.5 47.4,20.3 47.3,19.1 47.2,17.8 47.3,16.5 47.4,15.3 47.8,14.2 48.2,13 48.6,12 
		49.2,10.9 50,10.1 50.7,9.2 51.5,8.5 52.5,7.8 53.4,7.3 54.5,6.8 55.6,6.5 56.8,6.1 58,6 59.3,5.9 60.8,6 62.1,6.2 63.5,6.5 
		64.7,7 64.7,10.5 64,9.6 63.5,9.1 62.9,8.6 62.2,8.3 61.4,7.9 60.4,7.7 59.3,7.7 58.6,7.7 57.9,7.8 57.2,8 56.6,8.3 55.8,8.8 
		55.4,9.1 54.9,9.7 54.4,10.3 53.9,11.1 53.6,11.8 53.1,13.3 52.7,15.3 52.6,17.3 52.7,19.5 53.1,21.5 53.6,23.2 53.9,24 54.4,24.7 
		54.9,25.3 55.4,25.9 56,26.4 56.7,26.8 57.3,27.1 58.1,27.4 59,27.5 59.8,27.6 60.5,27.5 61.3,27.4 62.6,27 63.8,26.4 64.7,25.8 
		65.6,27.6 64.6,28.2 63.4,28.7 62.6,28.9 61.6,29.2 60.5,29.3 	"/>
	<polygon class="st1" points="59.2,29.3 59.2,29.3 57.9,29.3 56.7,29.2 55.5,28.9 54.4,28.6 53.3,28.1 52.4,27.6 51.4,27 50.6,26.3 
		49.8,25.5 49.1,24.6 48.5,23.7 48.2,22.6 47.7,21.5 47.4,20.3 47.3,19.1 47.2,17.8 47.3,16.5 47.4,15.3 47.8,14.2 48.2,13 48.6,12 
		49.2,10.9 50,10.1 50.7,9.2 51.5,8.5 52.5,7.8 53.4,7.3 54.5,6.8 55.6,6.5 56.8,6.1 58,6 59.3,5.9 60.8,6 62.1,6.2 63.5,6.5 
		64.7,7 64.7,10.5 64,9.6 63.5,9.1 62.9,8.6 62.2,8.3 61.4,7.9 60.4,7.7 59.3,7.7 58.6,7.7 57.9,7.8 57.2,8 56.6,8.3 55.8,8.8 
		55.4,9.1 54.9,9.7 54.4,10.3 53.9,11.1 53.6,11.8 53.1,13.3 52.7,15.3 52.6,17.3 52.7,19.5 53.1,21.5 53.6,23.2 53.9,24 54.4,24.7 
		54.9,25.3 55.4,25.9 56,26.4 56.7,26.8 57.3,27.1 58.1,27.4 59,27.5 59.8,27.6 60.5,27.5 61.3,27.4 62.6,27 63.8,26.4 64.7,25.8 
		65.6,27.6 64.6,28.2 63.4,28.7 62.6,28.9 61.6,29.2 60.5,29.3 	"/>
</g>
</svg>
