<?xml version="1.0" encoding="utf-8"?>
<!-- Generator: Adobe Illustrator 19.0.0, SVG Export Plug-In . SVG Version: 6.00 Build 0)  -->
<svg version="1.1" id="Layer_1" xmlns="http://www.w3.org/2000/svg" xmlns:xlink="http://www.w3.org/1999/xlink" x="0px" y="0px"
	 viewBox="0 0 173.16 136.9" style="enable-background:new 0 0 173.16 136.9;" xml:space="preserve">
<style type="text/css">
	.st0{fill:#FFFFFF;}
	.st1{fill:none;stroke:#FFFFFF;stroke-width:0.15;stroke-linecap:square;stroke-miterlimit:10;}
	.st2{fill:#0C60AA;}
</style>
<g id="XMLID_3_">
	<g id="XMLID_71_">
		<path id="XMLID_98_" class="st0" d="M0,0v136.9h173.16V0H0z M166.76,103.34H6.41V5.91h160.35V103.34z"/>
		<polygon id="XMLID_93_" class="st0" points="72.04,103.62 167.49,6.75 167.49,5.91 166.93,5.91 70.63,103.62 		"/>
		<polygon id="XMLID_92_" class="st0" points="11.88,103.62 18.38,5.91 17.25,5.91 11.03,103.62 		"/>
		<polygon id="XMLID_91_" class="st0" points="16.97,103.62 31.09,5.91 29.96,5.91 16.12,103.62 		"/>
		<polygon id="XMLID_90_" class="st0" points="22.62,103.62 44.36,5.91 43.51,5.91 21.49,103.62 		"/>
		<polygon id="XMLID_89_" class="st0" points="28.55,103.62 59.89,5.91 58.76,5.91 27.7,103.62 		"/>
		<polygon id="XMLID_88_" class="st0" points="34.48,103.62 74.3,5.91 73.17,5.91 33.35,103.62 		"/>
		<polygon id="XMLID_87_" class="st0" points="40.97,103.62 90.96,5.91 89.83,5.91 39.84,103.62 		"/>
		<polygon id="XMLID_86_" class="st0" points="115.81,5.91 114.68,5.91 50.01,103.62 51.14,103.62 		"/>
		<polygon id="XMLID_85_" class="st0" points="138.97,5.91 137.84,5.91 59.05,103.62 60.46,103.62 		"/>
		<polygon id="XMLID_84_" class="st0" points="167.49,42.91 167.49,41.49 89.55,103.62 91.24,103.62 		"/>
		<polygon id="XMLID_83_" class="st0" points="167.49,69.73 167.49,68.6 111.57,103.62 113.27,103.62 		"/>
		<polygon id="XMLID_82_" class="st0" points="167.49,95.15 167.49,94.02 146.87,103.62 149.42,103.62 		"/>
		<polygon id="XMLID_81_" class="st0" points="41.82,73.68 41.82,73.68 38.71,73.68 35.89,73.4 33.07,72.84 30.24,71.99 
			27.98,70.86 25.44,69.73 23.47,68.32 21.49,66.62 19.51,64.65 18.09,62.67 16.68,60.41 15.55,57.87 14.71,55.33 14.14,52.5 
			13.58,49.68 13.58,46.57 13.86,43.47 14.14,40.64 14.71,38.1 15.84,35.28 16.97,33.02 18.38,30.47 19.79,28.5 21.77,26.52 
			23.75,24.83 26.01,23.13 28.26,22 30.81,20.88 33.35,20.03 36.17,19.18 39,18.9 42.1,18.62 45.21,18.9 48.6,19.47 51.7,20.03 
			54.81,21.16 54.81,29.35 53.12,27.37 51.7,26.24 50.57,25.11 48.88,24.26 46.91,23.41 44.64,22.85 42.1,22.85 40.41,22.85 
			38.43,23.13 37.02,23.7 35.32,24.26 33.91,25.39 32.78,26.24 31.37,27.65 30.53,29.06 29.39,30.76 28.55,32.45 27.42,36.12 
			26.57,40.64 26.29,45.45 26.57,50.53 27.42,55.33 28.55,59.28 29.39,61.26 30.53,62.95 31.66,64.37 32.78,65.78 34.2,66.91 
			35.61,67.75 37.3,68.6 39.28,69.17 41.25,69.45 43.23,69.73 44.93,69.45 46.34,69.17 49.73,68.32 52.55,66.91 54.81,65.5 
			56.5,69.73 54.53,71.14 51.42,72.27 49.73,72.84 47.47,73.4 44.93,73.68 		"/>
		<polygon id="XMLID_80_" class="st1" points="41.82,73.68 41.82,73.68 38.71,73.68 35.89,73.4 33.07,72.84 30.24,71.99 
			27.98,70.86 25.44,69.73 23.47,68.32 21.49,66.62 19.51,64.65 18.09,62.67 16.68,60.41 15.55,57.87 14.71,55.33 14.14,52.5 
			13.58,49.68 13.58,46.57 13.86,43.47 14.14,40.64 14.71,38.1 15.84,35.28 16.97,33.02 18.38,30.47 19.79,28.5 21.77,26.52 
			23.75,24.83 26.01,23.13 28.26,22 30.81,20.88 33.35,20.03 36.17,19.18 39,18.9 42.1,18.62 45.21,18.9 48.6,19.47 51.7,20.03 
			54.81,21.16 54.81,29.35 53.12,27.37 51.7,26.24 50.57,25.11 48.88,24.26 46.91,23.41 44.64,22.85 42.1,22.85 40.41,22.85 
			38.43,23.13 37.02,23.7 35.32,24.26 33.91,25.39 32.78,26.24 31.37,27.65 30.53,29.06 29.39,30.76 28.55,32.45 27.42,36.12 
			26.57,40.64 26.29,45.45 26.57,50.53 27.42,55.33 28.55,59.28 29.39,61.26 30.53,62.95 31.66,64.37 32.78,65.78 34.2,66.91 
			35.61,67.75 37.3,68.6 39.28,69.17 41.25,69.45 43.23,69.73 44.93,69.45 46.34,69.17 49.73,68.32 52.55,66.91 54.81,65.5 
			56.5,69.73 54.53,71.14 51.42,72.27 49.73,72.84 47.47,73.4 44.93,73.68 		"/>
		<path id="XMLID_77_" class="st0" d="M96.89,46.29L96.89,46.29v3.67l-0.56,3.39l-0.56,2.82l-1.13,2.26l-0.85,2.26l-1.41,1.7
			l-1.41,1.69l-1.7,1.13l-1.7,1.13l-1.69,0.56l-1.98,0.56l-1.98,0.57l-3.95,0.56H74.3V23.7h3.68l3.95,0.57l1.98,0.28l1.98,0.56
			l1.69,0.85l1.7,1.13l1.7,1.13l1.41,1.7l1.41,1.7l1.13,2.25l0.85,2.54l0.56,2.83l0.56,3.39V46.29z M83.62,72.84L83.62,72.84
			l3.95-0.28l2.26-0.56l1.98-0.57l2.26-0.56l2.26-1.13l1.98-1.13l1.98-1.41l1.98-1.69l1.7-1.98l1.41-2.26l1.41-2.26l1.13-2.82
			l0.85-3.11l0.56-3.39v-3.67v-3.68l-0.56-3.67l-0.85-3.11l-1.13-2.82l-1.41-2.26l-1.41-2.26l-1.7-1.98l-1.98-1.41l-2.26-1.41
			l-1.98-1.13l-2.26-0.84l-2.26-0.57l-2.54-0.56l-2.26-0.28l-4.52-0.28H63v53.09H83.62z"/>
		<path id="XMLID_74_" class="st1" d="M96.89,46.29L96.89,46.29v3.67l-0.56,3.39l-0.56,2.82l-1.13,2.26l-0.85,2.26l-1.41,1.7
			l-1.41,1.69l-1.7,1.13l-1.7,1.13l-1.69,0.56l-1.98,0.56l-1.98,0.57l-3.95,0.56H74.3V23.7h3.68l3.95,0.57l1.98,0.28l1.98,0.56
			l1.69,0.85l1.7,1.13l1.7,1.13l1.41,1.7l1.41,1.7l1.13,2.25l0.85,2.54l0.56,2.83l0.56,3.39V46.29z M83.62,72.84L83.62,72.84
			l3.95-0.28l2.26-0.56l1.98-0.57l2.26-0.56l2.26-1.13l1.98-1.13l1.98-1.41l1.98-1.69l1.7-1.98l1.41-2.26l1.41-2.26l1.13-2.82
			l0.85-3.11l0.56-3.39v-3.67v-3.68l-0.56-3.67l-0.85-3.11l-1.13-2.82l-1.41-2.26l-1.41-2.26l-1.7-1.98l-1.98-1.41l-2.26-1.41
			l-1.98-1.13l-2.26-0.84l-2.26-0.57l-2.54-0.56l-2.26-0.28l-4.52-0.28H63v53.09H83.62z"/>
		<polygon id="XMLID_73_" class="st0" points="143.77,73.68 143.77,73.68 140.66,73.68 137.84,73.4 135.01,72.84 132.47,71.99 
			129.93,70.86 127.67,69.73 125.41,68.32 123.44,66.62 121.74,64.65 120.05,62.67 118.63,60.41 117.79,57.87 116.66,55.33 
			116.09,52.5 115.81,49.68 115.53,46.57 115.81,43.47 116.09,40.64 116.94,38.1 117.79,35.28 118.91,33.02 120.33,30.47 
			122.03,28.5 123.72,26.52 125.7,24.83 127.96,23.13 130.21,22 132.76,20.88 135.3,20.03 138.12,19.18 140.94,18.9 144.05,18.62 
			147.44,18.9 150.55,19.47 153.93,20.03 156.76,21.16 156.76,29.35 155.06,27.37 153.93,26.24 152.52,25.11 150.83,24.26 
			148.85,23.41 146.59,22.85 144.05,22.85 142.35,22.85 140.66,23.13 138.97,23.7 137.56,24.26 135.86,25.39 134.73,26.24 
			133.6,27.65 132.47,29.06 131.34,30.76 130.5,32.45 129.37,36.12 128.52,40.64 128.24,45.45 128.52,50.53 129.37,55.33 
			130.5,59.28 131.34,61.26 132.47,62.95 133.6,64.37 134.73,65.78 136.15,66.91 137.84,67.75 139.25,68.6 141.23,69.17 
			143.21,69.45 145.18,69.73 146.87,69.45 148.57,69.17 151.68,68.32 154.5,66.91 156.76,65.5 158.74,69.73 156.47,71.14 
			153.65,72.27 151.68,72.84 149.42,73.4 146.87,73.68 		"/>
		<polygon id="XMLID_72_" class="st1" points="143.77,73.68 143.77,73.68 140.66,73.68 137.84,73.4 135.01,72.84 132.47,71.99 
			129.93,70.86 127.67,69.73 125.41,68.32 123.44,66.62 121.74,64.65 120.05,62.67 118.63,60.41 117.79,57.87 116.66,55.33 
			116.09,52.5 115.81,49.68 115.53,46.57 115.81,43.47 116.09,40.64 116.94,38.1 117.79,35.28 118.91,33.02 120.33,30.47 
			122.03,28.5 123.72,26.52 125.7,24.83 127.96,23.13 130.21,22 132.76,20.88 135.3,20.03 138.12,19.18 140.94,18.9 144.05,18.62 
			147.44,18.9 150.55,19.47 153.93,20.03 156.76,21.16 156.76,29.35 155.06,27.37 153.93,26.24 152.52,25.11 150.83,24.26 
			148.85,23.41 146.59,22.85 144.05,22.85 142.35,22.85 140.66,23.13 138.97,23.7 137.56,24.26 135.86,25.39 134.73,26.24 
			133.6,27.65 132.47,29.06 131.34,30.76 130.5,32.45 129.37,36.12 128.52,40.64 128.24,45.45 128.52,50.53 129.37,55.33 
			130.5,59.28 131.34,61.26 132.47,62.95 133.6,64.37 134.73,65.78 136.15,66.91 137.84,67.75 139.25,68.6 141.23,69.17 
			143.21,69.45 145.18,69.73 146.87,69.45 148.57,69.17 151.68,68.32 154.5,66.91 156.76,65.5 158.74,69.73 156.47,71.14 
			153.65,72.27 151.68,72.84 149.42,73.4 146.87,73.68 		"/>
	</g>
	<g id="XMLID_4_">
		<g id="XMLID_5_">
			<polygon id="XMLID_70_" class="st2" points="11.88,111.53 11.6,111.25 11.03,110.96 9.91,110.68 9.06,110.68 8.5,110.96 
				7.93,111.53 7.65,112.09 7.93,112.94 8.5,113.5 9.06,113.79 9.91,113.79 11.03,113.5 11.6,113.5 11.6,113.22 11.6,112.94 
				11.88,112.94 13.02,114.63 12.73,114.63 11.6,114.91 10.75,115.2 9.62,115.2 8.21,115.2 7.09,114.63 6.24,113.5 5.96,112.94 
				5.96,112.09 5.96,111.53 6.24,110.96 7.09,109.83 8.21,109.27 9.62,109.27 11.6,109.27 12.45,109.55 12.73,109.55 			"/>
			<polygon id="XMLID_69_" class="st2" points="20.92,114.07 20.92,114.07 21.2,114.07 21.2,113.79 21.49,113.79 21.49,115.48 
				21.2,115.48 21.2,115.2 20.92,115.2 15.84,115.2 16.12,114.91 16.12,110.68 16.12,110.4 15.84,110.4 15.84,110.12 20.92,110.12 
				21.2,110.12 21.2,109.83 21.49,109.83 21.49,111.53 21.2,111.53 21.2,111.25 20.92,111.25 17.82,111.25 17.82,112.09 
				19.79,112.09 20.07,112.09 20.07,111.81 20.07,113.22 19.79,112.94 17.82,112.94 17.82,114.07 			"/>
			<polygon id="XMLID_68_" class="st2" points="30.24,114.91 30.24,114.91 30.53,114.91 30.81,115.2 28.55,115.2 28.83,114.91 
				27.98,113.79 26.29,111.81 26.01,111.81 26.01,114.91 26.29,114.91 26.57,115.2 24.6,115.2 24.6,114.91 24.88,114.91 
				24.88,110.68 24.6,110.4 24.6,110.12 27.14,110.12 27.14,110.4 26.85,110.68 29.11,112.66 29.11,110.68 28.83,110.4 28.55,110.4 
				28.55,110.12 30.81,110.12 30.81,110.4 30.53,110.4 30.24,110.68 			"/>
			<polygon id="XMLID_67_" class="st2" points="38.71,110.12 38.71,110.12 38.71,109.83 39,109.83 39,111.53 38.71,111.53 
				38.71,111.25 37.02,111.25 37.02,114.91 37.3,115.2 35.04,115.2 35.32,114.91 35.32,111.25 33.91,111.25 33.63,111.53 
				33.35,111.53 33.35,109.83 33.63,109.83 33.63,110.12 33.91,110.12 			"/>
			<polygon id="XMLID_66_" class="st2" points="46.9,114.07 46.9,114.07 47.19,113.79 47.19,115.48 46.9,115.2 41.82,115.2 
				41.82,114.91 42.1,114.91 42.1,110.68 41.82,110.4 41.82,110.12 46.9,110.12 47.19,109.83 47.19,111.53 46.9,111.25 
				43.52,111.25 43.52,112.09 45.77,112.09 45.77,111.81 46.06,111.81 46.06,113.22 45.77,113.22 45.77,112.94 43.52,112.94 
				43.52,114.07 			"/>
			<path id="XMLID_63_" class="st2" d="M52.27,111.25h1.41h0.57l0.28,0.56l-0.28,0.28l-0.57,0.28h-1.41V111.25z M50.86,114.91
				L50.86,114.91h-0.28v0.28h1.98l-0.28-0.28v-1.69h0.85l1.13,1.69l-0.28,0.28h2.26l-0.57-0.28l-0.84-1.69l0.84-0.57l0.28-0.28
				v-0.56v-0.85l-0.57-0.28l-0.56-0.28l-0.57-0.28h-3.67v0.28l0.28,0.28V114.91z"/>
			<polygon id="XMLID_62_" class="st2" points="59.33,113.5 59.33,113.5 59.33,113.79 59.61,113.79 60.18,114.07 61.59,114.35 
				62.15,114.07 62.43,114.07 62.72,113.79 62.43,113.5 61.87,113.22 60.74,113.22 59.33,112.94 59.05,112.37 58.77,111.81 
				59.05,111.25 59.33,110.68 60.18,110.4 61.31,110.12 62.72,110.4 63.56,110.4 63.84,110.4 64.13,110.4 63.29,111.81 
				63.29,111.53 62.72,111.25 61.59,111.25 61.02,111.25 60.46,111.25 60.46,111.53 60.46,111.81 61.02,112.09 62.15,112.09 
				63.56,112.66 63.84,112.94 64.13,113.5 63.84,114.35 63.56,114.63 62.72,115.2 61.59,115.2 59.89,115.2 59.05,114.91 
				58.77,114.91 			"/>
			<polygon id="XMLID_61_" class="st2" points="77.69,110.68 77.69,110.68 77.41,110.4 77.41,110.12 82.2,110.12 82.49,110.12 
				82.49,109.83 82.49,111.53 82.49,111.25 82.2,111.25 79.1,111.25 79.1,112.37 81.36,112.37 81.36,112.09 81.64,112.09 
				81.64,113.5 81.36,113.5 81.36,113.22 79.1,113.22 79.1,114.91 79.38,115.2 77.41,115.2 77.41,114.91 77.69,114.91 			"/>
			<path id="XMLID_58_" class="st2" d="M88.13,111.25L88.13,111.25l0.57,0.28l0.56,0.28l0.28,0.28v0.56v0.57l-0.28,0.56l-0.56,0.28
				h-0.57h-0.57l-0.56-0.28l-0.28-0.56l-0.28-0.57l0.28-0.56l0.28-0.28l0.56-0.28L88.13,111.25z M88.13,110.12L88.13,110.12
				l-1.13,0.28l-1.13,0.28l-0.57,0.85l-0.28,1.13l0.28,1.13l0.57,0.85l1.13,0.57h1.13h0.85l1.13-0.57l0.57-0.85l0.28-1.13
				l-0.28-1.13l-0.57-0.85l-1.13-0.28L88.13,110.12z"/>
			<path id="XMLID_55_" class="st2" d="M95.76,111.25h1.41h0.85v0.56v0.28l-0.85,0.28h-1.41V111.25z M94.35,114.91L94.35,114.91
				h-0.28v0.28h1.98l-0.28-0.28v-1.69h1.13l0.85,1.69l-0.28,0.28h2.26l-0.56-0.28l-0.85-1.69l0.85-0.57l0.29-0.28v-0.56v-0.85
				l-0.29-0.28l-0.85-0.28l-0.57-0.28h-3.67v0.28l0.28,0.28V114.91z"/>
			<path id="XMLID_52_" class="st2" d="M114.96,110.68h1.41h0.85l0.56,0.28l0.28,0.57v0.56v0.85l-0.28,0.57l-0.56,0.28h-0.85h-1.41
				V110.68z M113.27,114.91L113.27,114.91l-0.28,0.28h3.67l1.41-0.28l1.13-0.57l0.57-1.13v-1.13v-1.13l-0.57-0.85l-1.13-0.56
				l-1.13-0.28h-3.95l0.28,0.28V114.91z"/>
			<polygon id="XMLID_51_" class="st2" points="122.87,110.12 122.87,110.4 123.16,110.4 123.16,110.68 123.16,114.91 122.87,115.2 
				125.13,115.2 124.85,114.91 124.57,114.91 124.57,110.68 124.85,110.4 125.13,110.4 125.13,110.12 			"/>
			<polygon id="XMLID_50_" class="st2" points="128.52,113.5 128.52,113.5 128.52,113.79 128.8,113.79 129.37,114.07 130.78,114.35 
				131.34,114.07 131.62,114.07 131.91,113.79 131.62,113.5 131.06,113.22 129.93,113.22 128.52,112.94 128.24,112.37 
				127.96,111.81 128.24,111.25 128.52,110.68 129.37,110.4 130.49,110.12 131.91,110.4 132.76,110.4 133.04,110.4 133.32,110.4 
				132.47,111.81 132.47,111.53 131.91,111.25 130.78,111.25 130.21,111.25 129.65,111.25 129.65,111.53 129.65,111.81 
				130.21,112.09 131.34,112.09 132.76,112.66 133.04,112.94 133.32,113.5 133.04,114.35 132.76,114.63 131.91,115.2 130.78,115.2 
				129.08,115.2 128.24,114.91 127.96,114.91 			"/>
			<polygon id="XMLID_49_" class="st2" points="141.23,114.07 141.23,114.07 141.51,114.07 141.51,113.79 141.79,113.79 
				141.79,115.48 141.51,115.48 141.51,115.2 141.23,115.2 136.14,115.2 136.43,114.91 136.43,110.68 136.43,110.4 136.14,110.4 
				136.14,110.12 141.23,110.12 141.51,110.12 141.51,109.83 141.79,109.83 141.79,111.53 141.51,111.53 141.51,111.25 
				141.23,111.25 138.12,111.25 138.12,112.09 140.1,112.09 140.38,112.09 140.38,111.81 140.38,113.22 140.1,112.94 138.12,112.94 
				138.12,114.07 			"/>
			<path id="XMLID_46_" class="st2" d="M146.87,113.5l0.85-1.98l0.85,1.98H146.87z M151.11,115.2L151.11,115.2l-0.28-0.28
				l-1.98-4.52v-0.28h-2.26v0.28h0.28l-1.98,4.52l-0.28,0.28h1.7l-0.28-0.28l0.28-0.85h2.83l0.28,0.85l-0.28,0.28H151.11z"/>
			<polygon id="XMLID_45_" class="st2" points="154.22,113.5 154.5,113.5 154.5,113.79 155.07,114.07 156.76,114.35 157.32,114.07 
				157.61,114.07 157.61,113.79 157.61,113.5 157.04,113.22 155.91,113.22 154.5,112.94 154.22,112.37 153.93,111.81 154.22,111.25 
				154.5,110.68 155.35,110.4 156.48,110.12 157.89,110.4 158.74,110.4 159.02,110.4 158.45,111.81 158.17,111.81 158.17,111.53 
				157.89,111.25 156.76,111.25 155.91,111.25 155.63,111.25 155.35,111.53 155.63,111.81 155.91,112.09 157.32,112.09 
				158.45,112.66 159.02,112.94 159.02,113.5 159.02,114.35 158.45,114.63 157.89,115.2 156.76,115.2 155.07,115.2 154.22,114.91 
				153.93,114.91 			"/>
			<polygon id="XMLID_44_" class="st2" points="167.21,114.07 167.21,114.07 167.49,113.79 167.49,115.48 167.21,115.2 
				162.12,115.2 162.41,114.91 162.41,110.68 162.41,110.4 162.12,110.4 162.12,110.12 167.21,110.12 167.49,110.12 167.49,109.83 
				167.49,111.53 167.49,111.25 167.21,111.25 163.82,111.25 163.82,112.09 166.08,112.09 166.36,111.81 166.36,113.22 
				166.08,113.22 166.08,112.94 163.82,112.94 163.82,114.07 			"/>
			<polygon id="XMLID_43_" class="st2" points="11.6,122.82 11.6,122.82 11.6,122.54 11.04,122.26 9.63,121.97 9.06,121.97 
				8.22,122.26 7.65,122.82 7.65,123.67 7.65,124.23 8.22,124.8 9.06,125.09 9.63,125.09 10.75,124.8 11.32,124.8 11.6,124.52 
				11.6,124.23 12.73,125.93 12.73,126.21 12.45,125.93 11.6,126.21 10.75,126.5 9.63,126.78 8.22,126.5 7.09,125.93 6.24,124.8 
				5.95,124.23 5.67,123.67 5.95,122.82 6.24,122.26 7.09,121.41 8.22,120.85 9.63,120.56 11.6,120.85 12.45,120.85 12.73,120.85 
							"/>
			<path id="XMLID_40_" class="st2" d="M17.54,122.82L17.54,122.82h0.85l0.28,0.28l0.28,0.28l0.28,0.56l-0.28,0.56l-0.28,0.57
				l-0.28,0.28h-0.85h-0.56l-0.29-0.28l-0.56-0.57v-0.56v-0.56l0.56-0.28l0.29-0.28H17.54z M17.54,121.41L17.54,121.41l-0.85,0.28
				l-1.12,0.28l-0.57,0.85l-0.28,1.13l0.28,1.41l0.57,0.56l1.12,0.57l0.85,0.28l1.13-0.28l1.13-0.57l0.57-0.56l0.28-1.41l-0.28-1.13
				l-0.57-0.85l-1.13-0.28L17.54,121.41z"/>
			<polygon id="XMLID_39_" class="st2" points="28.55,126.21 28.55,126.21 28.55,126.49 28.83,126.49 26.85,126.49 27.14,126.21 
				26.29,125.08 24.31,123.11 24.31,123.39 24.31,126.21 24.31,126.49 24.6,126.49 22.62,126.49 22.9,126.49 22.9,126.21 
				22.9,121.97 22.9,121.69 22.62,121.69 25.44,121.69 25.16,121.69 25.16,121.97 27.14,124.24 27.14,121.97 27.14,121.69 
				26.85,121.69 28.83,121.69 28.55,121.69 28.55,121.97 			"/>
			<polygon id="XMLID_38_" class="st2" points="35.89,121.69 35.89,121.69 36.17,121.41 36.45,121.41 36.45,123.11 36.17,123.11 
				36.17,122.82 35.89,122.82 34.48,122.82 34.48,126.21 34.48,126.49 32.5,126.49 32.78,126.49 32.78,126.21 32.78,122.82 
				31.09,122.82 31.09,123.11 30.81,123.11 30.81,121.41 31.09,121.41 31.09,121.69 			"/>
			<path id="XMLID_35_" class="st2" d="M40.13,122.54h1.41l0.85,0.29v0.28v0.56h-0.57h-1.69V122.54z M38.71,126.21L38.71,126.21
				v0.28h-0.28h1.98h-0.28v-0.28v-1.41h1.13l0.85,1.41l-0.28,0.28h2.26l-0.28-0.28l-1.13-1.41l0.85-0.56l0.28-0.57v-0.56v-0.57
				l-0.28-0.56l-0.57-0.28H42.1h-3.67h0.28v0.28V126.21z"/>
			<path id="XMLID_32_" class="st2" d="M48.88,122.82L48.88,122.82h0.57l0.56,0.28l0.28,0.28l0.28,0.56l-0.28,0.56l-0.28,0.57
				l-0.56,0.28h-0.57h-0.56l-0.57-0.28l-0.28-0.57v-0.56v-0.56l0.28-0.28l0.57-0.28H48.88z M48.88,121.41L48.88,121.41l-1.13,0.28
				l-0.84,0.28l-0.85,0.85l-0.28,1.13l0.28,1.41l0.85,0.56l0.84,0.57l1.13,0.28l1.13-0.28l0.85-0.57l0.85-0.56l0.28-1.41l-0.28-1.13
				l-0.85-0.85l-0.85-0.28L48.88,121.41z"/>
			<polygon id="XMLID_31_" class="st2" points="54.25,121.97 54.25,121.97 54.25,121.69 53.96,121.69 55.94,121.69 55.66,121.97 
				55.66,125.37 58.76,125.37 59.05,125.37 59.05,125.08 59.05,126.78 59.05,126.49 58.76,126.49 53.96,126.49 54.25,126.49 
				54.25,126.21 			"/>
			<path id="XMLID_28_" class="st2" d="M67.52,124.8l0.85-1.98l0.84,1.98H67.52z M71.76,126.49L71.76,126.49l-0.28-0.28l-1.98-4.51
				h-2.25h0.28l-1.97,4.51l-0.28,0.28h1.7l-0.28-0.28l0.28-0.56h2.83l0.28,0.56l-0.28,0.28H71.76z"/>
			<polygon id="XMLID_27_" class="st2" points="79.66,126.21 79.66,126.21 79.94,126.49 77.97,126.49 78.25,126.49 78.25,126.21 
				77.4,125.08 75.43,123.11 75.43,123.39 75.43,126.21 75.71,126.49 74.01,126.49 74.3,126.21 74.3,121.97 74.01,121.69 
				76.56,121.69 76.28,121.97 78.53,124.24 78.53,121.97 78.25,121.69 77.97,121.69 79.94,121.69 79.66,121.97 			"/>
			<path id="XMLID_24_" class="st2" d="M84.18,122.54h0.85l0.57,0.29l0.56,0.28l0.28,0.28l0.28,0.56l-0.28,0.85l-0.28,0.28
				l-0.56,0.28h-0.57h-0.85V122.54z M82.49,126.21L82.49,126.21v0.28H82.2h3.39h1.13l0.85-0.56l0.28-0.85l0.28-1.13l-0.28-0.85
				l-0.28-0.85l-0.85-0.56h-1.13H82.2h0.28v0.28V126.21z"/>
			<path id="XMLID_21_" class="st2" d="M96.61,121.97h1.7h0.85l0.28,0.56l-0.28,0.57H98.3h-1.7V121.97z M96.61,124.23h2.26h0.84
				l0.57-0.56l0.56-0.57v-0.57v-0.85l-0.56-0.56l-0.57-0.28l-0.84-0.29h-4.23v0.29h0.28v5.36v0.28h-0.28h2.25l-0.28-0.28V124.23z"/>
			<path id="XMLID_18_" class="st2" d="M104.8,122.54h1.41l0.56,0.29l0.29,0.28l-0.29,0.56h-0.56h-1.41V122.54z M103.38,126.21
				L103.38,126.21l-0.28,0.28h1.98h-0.28v-0.28v-1.41h0.85l1.12,1.41l-0.28,0.28h2.26l-0.57-0.28l-0.85-1.41l0.85-0.56l0.29-0.57
				v-0.56v-0.57l-0.57-0.56l-0.57-0.28h-0.56h-3.67l0.28,0.28V126.21z"/>
			<polygon id="XMLID_17_" class="st2" points="115.81,125.65 115.81,125.65 115.81,125.37 116.09,125.37 116.09,126.78 
				116.09,126.5 115.81,126.5 110.73,126.5 111.01,126.5 111.01,126.21 111.01,121.97 111.01,121.69 110.73,121.69 115.81,121.69 
				116.09,121.41 116.09,122.82 116.09,122.54 115.81,122.54 112.42,122.54 112.42,123.39 114.68,123.39 114.96,123.11 
				114.96,124.8 114.68,124.52 112.42,124.52 112.42,125.65 			"/>
			<polygon id="XMLID_16_" class="st2" points="118.07,121.69 120.33,121.69 120.05,121.69 120.89,124.8 122.31,121.69 
				122.03,121.69 123.72,121.69 123.44,121.97 121.74,126.21 122.03,126.49 119.76,126.49 119.76,126.21 119.2,123.96 
				118.35,121.69 			"/>
			<polygon id="XMLID_15_" class="st2" points="130.78,125.65 130.78,125.65 131.06,125.37 131.06,126.78 131.06,126.5 
				130.78,126.5 125.69,126.5 125.98,126.5 125.98,126.21 125.98,121.97 125.98,121.69 125.69,121.69 130.78,121.69 131.06,121.41 
				131.06,122.82 131.06,122.54 130.78,122.54 127.39,122.54 127.39,123.39 129.65,123.39 129.93,123.39 129.93,123.11 
				129.93,124.8 129.93,124.52 129.65,124.52 127.39,124.52 127.39,125.65 			"/>
			<polygon id="XMLID_14_" class="st2" points="139.25,126.21 139.25,126.21 139.53,126.49 139.81,126.49 137.56,126.49 
				137.84,126.49 137.84,126.21 136.99,125.08 135.3,123.11 135.3,123.39 135.3,126.21 135.3,126.49 135.58,126.49 133.6,126.49 
				133.88,126.21 133.88,121.97 133.6,121.69 136.15,121.69 135.86,121.97 138.12,124.24 138.12,121.97 137.84,121.69 
				139.81,121.69 139.53,121.69 139.25,121.97 			"/>
			<polygon id="XMLID_13_" class="st2" points="146.87,121.69 146.87,121.69 146.87,121.41 147.16,121.41 147.16,123.11 
				146.87,123.11 146.87,122.82 145.18,122.82 145.18,126.21 145.18,126.49 145.46,126.49 143.49,126.49 143.77,126.21 
				143.77,122.82 142.07,122.82 141.79,122.82 141.79,123.11 141.79,121.41 142.07,121.69 			"/>
			<path id="XMLID_10_" class="st2" d="M151.11,126.49h0.28H151.11z M149.13,121.7h0.29l0.28,0.28v4.23l-0.28,0.28h-0.29h1.98v-0.28
				v-4.23v-0.28h0.28H149.13z"/>
			<path id="XMLID_7_" class="st2" d="M156.47,122.82L156.47,122.82h0.57l0.57,0.28l0.28,0.28l0.28,0.56l-0.28,0.56l-0.28,0.57
				l-0.57,0.28h-0.57h-0.56l-0.57-0.28l-0.28-0.57v-0.56v-0.56l0.28-0.28l0.57-0.28H156.47z M156.47,121.41L156.47,121.41
				l-1.13,0.28l-0.85,0.28l-0.85,0.85l-0.28,1.13l0.28,1.41l0.85,0.56l0.85,0.57l1.13,0.28l1.13-0.28l0.84-0.57l0.85-0.56l0.28-1.41
				l-0.28-1.13l-0.85-0.85l-0.84-0.28L156.47,121.41z"/>
			<polygon id="XMLID_6_" class="st2" points="167.49,126.21 167.49,126.21 167.49,126.49 167.77,126.49 165.8,126.49 
				166.08,126.21 165.23,125.08 163.25,123.11 163.25,123.39 163.25,126.21 163.25,126.49 163.53,126.49 161.56,126.49 
				161.84,126.49 161.84,126.21 161.84,121.97 161.84,121.69 161.56,121.69 164.39,121.69 164.1,121.69 164.1,121.97 166.08,124.24 
				166.08,121.97 166.08,121.69 165.8,121.69 167.77,121.69 167.49,121.69 167.49,121.97 			"/>
		</g>
	</g>
</g>
</svg>
