<svg xmlns="http://www.w3.org/2000/svg" viewBox="0 0 395.3 39.6"><defs><style>.cls-1{fill:#fff;}.cls-2{fill:none;stroke:#fff;stroke-width:2px;}</style></defs><title>WISQARS Non-Fatal Injury Data Visualization Tool</title><g id="Layer_2" data-name="Layer 2"><g id="Content"><g id="_Group_" data-name="&lt;Group&gt;"><path id="_Path_" data-name="&lt;Path&gt;" class="cls-1" d="M291.1,16.7h-1.7V5.2h1.7Z"/><path id="_Path_2" data-name="&lt;Path&gt;" class="cls-1" d="M304.1,5.2V16.7h-.9a.37.37,0,0,1-.3-.1c-.1,0-.2-.1-.3-.2L296.1,8v8.7h-1.4V5.2h.9c.1,0,.3,0,.3.1a.22.22,0,0,1,.2.2l6.5,8.4V5.2Z"/><path id="_Path_3" data-name="&lt;Path&gt;" class="cls-1" d="M311.9,12.7a8.81,8.81,0,0,1-.2,1.7,5.39,5.39,0,0,1-.7,1.3,2.84,2.84,0,0,1-1.1.8,4.15,4.15,0,0,1-1.6.3,8.75,8.75,0,0,1-1.6-.2l.1-1c0-.1,0-.2.1-.2a.37.37,0,0,1,.3-.1.76.76,0,0,1,.4.1c.2,0,.4.1.6.1a2.92,2.92,0,0,0,.9-.2,1.79,1.79,0,0,0,.7-.5,2,2,0,0,0,.4-.8,4.12,4.12,0,0,0,.1-1.2V5.2H312l-.1,7.5Z"/><path id="_Path_4" data-name="&lt;Path&gt;" class="cls-1" d="M319.9,15.3a3.73,3.73,0,0,0,1.2-.2,2.18,2.18,0,0,0,.9-.7,3.33,3.33,0,0,0,.6-1,2.74,2.74,0,0,0,.2-1.3v-7h1.7v7a5.82,5.82,0,0,1-.3,1.9,3.77,3.77,0,0,1-.9,1.5,5.6,5.6,0,0,1-1.5,1,5.85,5.85,0,0,1-1.9.4,3.81,3.81,0,0,1-1.9-.4,4,4,0,0,1-1.5-1,3.77,3.77,0,0,1-.9-1.5,5.82,5.82,0,0,1-.3-1.9v-7H317V12a5.07,5.07,0,0,0,.2,1.3,2.07,2.07,0,0,0,.6,1,5.5,5.5,0,0,0,.9.7A2.13,2.13,0,0,0,319.9,15.3Z"/><path id="_Compound_Path_" data-name="&lt;Compound Path&gt;" class="cls-1" d="M336.6,16.7h-1.5a.75.75,0,0,1-.7-.4l-2.8-4-.3-.3a.75.75,0,0,0-.5-.1h-1.1v4.7H328V5.2h3.3a10.07,10.07,0,0,1,1.9.2,8.09,8.09,0,0,1,1.3.6,3.92,3.92,0,0,1,.8,1,2.77,2.77,0,0,1,.3,1.3,3.59,3.59,0,0,1-.2,1.1,2.62,2.62,0,0,1-.5.9,2.18,2.18,0,0,1-.9.7,3.34,3.34,0,0,1-1.2.5,2.65,2.65,0,0,1,.6.5Zm-5.4-6a5,5,0,0,0,1.2-.2,2.18,2.18,0,0,0,.8-.5,1.79,1.79,0,0,0,.5-.7,2.92,2.92,0,0,0,.2-.9,1.58,1.58,0,0,0-.7-1.5,3.44,3.44,0,0,0-2-.5h-1.5v4.2h1.5Z"/><path id="_Path_5" data-name="&lt;Path&gt;" class="cls-1" d="M342.9,12.1v4.5h-1.7V12.1L337,5.2h1.5a.6.6,0,0,1,.4.1c.1.1.2.2.2.3l2.5,4.3.3.6c.1.2.2.3.2.5.1-.2.1-.3.2-.5l.3-.6,2.5-4.3c.1-.1.1-.2.2-.3s.2-.1.4-.1h1.5Z"/><path id="_Compound_Path_2" data-name="&lt;Compound Path&gt;" class="cls-1" d="M363.5,10.9a5.56,5.56,0,0,1-.4,2.3,5.52,5.52,0,0,1-3,3,5.87,5.87,0,0,1-2.3.4h-4.3V5.2h4.3a5.56,5.56,0,0,1,2.3.4,5.52,5.52,0,0,1,3,3A5.87,5.87,0,0,1,363.5,10.9Zm-1.7,0a4.84,4.84,0,0,0-.3-1.8,6.38,6.38,0,0,0-.8-1.4,3.45,3.45,0,0,0-1.2-.9,4.15,4.15,0,0,0-1.6-.3h-2.6v8.7h2.6a4.15,4.15,0,0,0,1.6-.3,2.73,2.73,0,0,0,1.2-.9,4.68,4.68,0,0,0,.8-1.4A4,4,0,0,0,361.8,10.9Z"/><path id="_Compound_Path_3" data-name="&lt;Compound Path&gt;" class="cls-1" d="M375.6,16.7h-1.3a.6.6,0,0,1-.4-.1c-.1-.1-.2-.2-.2-.3l-1-2.7h-5.1l-1,2.7c0,.1-.1.2-.2.3s-.2.1-.4.1h-1.3l4.6-11.5H371Zm-3.4-4.3-1.7-4.5c-.1-.3-.2-.7-.4-1.2-.1.2-.1.4-.2.6s-.1.4-.2.5L368,12.2h4.2v.2Z"/><path id="_Path_6" data-name="&lt;Path&gt;" class="cls-1" d="M384.5,6.6h-3.6V16.7h-1.7V6.6h-3.7V5.2h9V6.6Z"/><path id="_Compound_Path_4" data-name="&lt;Compound Path&gt;" class="cls-1" d="M395.3,16.7H394a.6.6,0,0,1-.4-.1c-.1-.1-.2-.2-.2-.3l-1-2.7h-5.1l-1,2.7c0,.1-.1.2-.2.3s-.2.1-.4.1h-1.3L389,5.2h1.7ZM392,12.4l-1.7-4.5c-.1-.3-.2-.7-.4-1.2-.1.2-.1.4-.2.6s-.1.4-.2.5l-1.7,4.4H392v.2Z"/><path id="_Path_7" data-name="&lt;Path&gt;" class="cls-1" d="M334.7,25.9H331V36h-1.7V25.9h-3.7V24.5h9l.1,1.4Z"/><path id="_Compound_Path_5" data-name="&lt;Compound Path&gt;" class="cls-1" d="M347.4,30.2a6.37,6.37,0,0,1-.4,2.4,7.61,7.61,0,0,1-1.2,1.9,4.39,4.39,0,0,1-1.8,1.2,6.81,6.81,0,0,1-4.6,0,5.67,5.67,0,0,1-1.8-1.2,5.16,5.16,0,0,1-1.2-1.9,6.37,6.37,0,0,1-.4-2.4,6.37,6.37,0,0,1,.4-2.4,7.61,7.61,0,0,1,1.2-1.9,5.67,5.67,0,0,1,1.8-1.2,5.87,5.87,0,0,1,2.3-.4,5.56,5.56,0,0,1,2.3.4,5.67,5.67,0,0,1,1.8,1.2,5.16,5.16,0,0,1,1.2,1.9A6.72,6.72,0,0,1,347.4,30.2Zm-1.7,0a4.84,4.84,0,0,0-.3-1.8,6.38,6.38,0,0,0-.8-1.4,3.45,3.45,0,0,0-1.2-.9,4.42,4.42,0,0,0-3.2,0,3.81,3.81,0,0,0-1.3.9,4.68,4.68,0,0,0-.8,1.4,5.23,5.23,0,0,0-.3,1.8,4.84,4.84,0,0,0,.3,1.8,6.38,6.38,0,0,0,.8,1.4,3,3,0,0,0,1.3.9,4.42,4.42,0,0,0,3.2,0,2.73,2.73,0,0,0,1.2-.9,4.68,4.68,0,0,0,.8-1.4A4.84,4.84,0,0,0,345.7,30.2Z"/><path id="_Compound_Path_6" data-name="&lt;Compound Path&gt;" class="cls-1" d="M361.1,30.2a6.37,6.37,0,0,1-.4,2.4,6.15,6.15,0,0,1-1.2,1.9,4.39,4.39,0,0,1-1.8,1.2,6.81,6.81,0,0,1-4.6,0,5.67,5.67,0,0,1-1.8-1.2,5.16,5.16,0,0,1-1.2-1.9,6.37,6.37,0,0,1-.4-2.4,6.37,6.37,0,0,1,.4-2.4,7.61,7.61,0,0,1,1.2-1.9,4.39,4.39,0,0,1,1.8-1.2,5.87,5.87,0,0,1,2.3-.4,5.56,5.56,0,0,1,2.3.4,5.67,5.67,0,0,1,1.8,1.2,5.16,5.16,0,0,1,1.2,1.9A10,10,0,0,1,361.1,30.2Zm-1.9,0a4.84,4.84,0,0,0-.3-1.8,6.38,6.38,0,0,0-.8-1.4,3.45,3.45,0,0,0-1.2-.9,4.42,4.42,0,0,0-3.2,0,3.81,3.81,0,0,0-1.3.9,4.68,4.68,0,0,0-.8,1.4,5.66,5.66,0,0,0-.3,1.8,4.84,4.84,0,0,0,.3,1.8,6.38,6.38,0,0,0,.8,1.4,3,3,0,0,0,1.3.9,4.42,4.42,0,0,0,3.2,0,2.73,2.73,0,0,0,1.2-.9,4.68,4.68,0,0,0,.8-1.4A3.43,3.43,0,0,0,359.2,30.2Z"/><path id="_Path_8" data-name="&lt;Path&gt;" class="cls-1" d="M370.6,34.5v1.4H364V24.5h1.7V34.6h4.9Z"/></g><path class="cls-1" d="M196.2,24.2h1.3c.1,0,.3,0,.3.1s.2.2.2.3l3.3,8.3c.1.2.1.4.2.6a6.37,6.37,0,0,1,.2.7,1.85,1.85,0,0,1,.2-.7c.1-.2.1-.4.2-.6l3.3-8.3c0-.1.1-.2.2-.3a.37.37,0,0,1,.3-.1h1.3L202.4,36H201Z"/><path class="cls-1" d="M210.7,36h-1.6V24.2h1.6Z"/><path class="cls-1" d="M219.9,26c0,.1-.1.1-.2.2s-.1.1-.2.1a.37.37,0,0,1-.3-.1,2.19,2.19,0,0,0-.5-.3,4.87,4.87,0,0,0-.7-.3,3.08,3.08,0,0,0-1-.1,2.22,2.22,0,0,0-.9.1,1.61,1.61,0,0,0-.7.4,2.09,2.09,0,0,0-.4.6,1.7,1.7,0,0,0-.1.7,1.88,1.88,0,0,0,.2.8l.6.6a2.47,2.47,0,0,0,.9.4,4.18,4.18,0,0,1,1,.4,10.38,10.38,0,0,1,1,.4,2.36,2.36,0,0,1,.9.6,2.1,2.1,0,0,1,.6.8,2.17,2.17,0,0,1,.2,1.2A4,4,0,0,1,220,34a3.17,3.17,0,0,1-.8,1.2,5,5,0,0,1-1.2.8,5.35,5.35,0,0,1-3.8-.1,6.45,6.45,0,0,1-1.6-1.1l.5-.8c0-.1.1-.1.2-.2s.1-.1.2-.1.2.1.4.2.3.3.6.4.5.3.8.4a3.73,3.73,0,0,0,1.2.2,3,3,0,0,0,1-.2c.3-.1.5-.3.8-.4s.4-.4.5-.7a2.92,2.92,0,0,0,.2-.9,2,2,0,0,0-.2-.9l-.6-.6a2.47,2.47,0,0,0-.9-.4c-.3-.1-.7-.2-1-.3a3,3,0,0,1-1-.4,4.7,4.7,0,0,1-.9-.6,1.8,1.8,0,0,1-.6-.9,5.07,5.07,0,0,1-.2-1.3,5,5,0,0,1,.2-1.2,2.29,2.29,0,0,1,.7-1,3.87,3.87,0,0,1,2.7-1,4.84,4.84,0,0,1,1.8.3,4.19,4.19,0,0,1,1.4.9Z"/><path class="cls-1" d="M227.2,34.7a5.07,5.07,0,0,0,1.3-.2,2.29,2.29,0,0,0,1-.7,2.38,2.38,0,0,0,.6-1.1,5.9,5.9,0,0,0,.2-1.4V24.1h1.6v7.2a5.82,5.82,0,0,1-.3,1.9,3.77,3.77,0,0,1-.9,1.5,4,4,0,0,1-1.5,1,5.92,5.92,0,0,1-2,.4,4.48,4.48,0,0,1-2-.4,5.6,5.6,0,0,1-1.5-1,3.77,3.77,0,0,1-.9-1.5,5.82,5.82,0,0,1-.3-1.9V24.1h1.6v7.2a6.75,6.75,0,0,0,.2,1.4,2.38,2.38,0,0,0,.6,1.1,3.59,3.59,0,0,0,1,.7A4.44,4.44,0,0,0,227.2,34.7Z"/><path class="cls-1" d="M243.9,36h-1.2c-.1,0-.3,0-.3-.1s-.2-.2-.2-.3l-1.1-2.9h-5.3l-1.1,2.9c0,.1-.1.2-.2.3a.37.37,0,0,1-.3.1H233l4.7-11.8h1.6Zm-7.8-4.4h4.4l-1.9-4.8a7.6,7.6,0,0,0-.4-1.1c-.1.2-.1.4-.2.6s-.1.4-.2.5Z"/><path class="cls-1" d="M247,34.7h5.1V36h-6.7V24.2H247V34.7Z"/><path class="cls-1" d="M255.7,36h-1.6V24.2h1.6Z"/><path class="cls-1" d="M267.1,24.2v.6a.76.76,0,0,1-.2.5l-6.7,9.4h6.7V36h-8.8v-.6c0-.2.1-.3.2-.5l6.7-9.4h-6.5V24.2Z"/><path class="cls-1" d="M278.9,36h-1.2c-.1,0-.3,0-.3-.1s-.2-.2-.2-.3l-1.1-2.9h-5.3l-1.1,2.9c0,.1-.1.2-.2.3a.37.37,0,0,1-.3.1H268l4.7-11.8h1.6Zm-7.7-4.4h4.4l-1.9-4.8a7.6,7.6,0,0,0-.4-1.1c-.1.2-.1.4-.2.6s-.1.4-.2.5Z"/><path class="cls-1" d="M287.4,24.2v1.3h-3.8V36H282V25.5h-3.8V24.2Z"/><path class="cls-1" d="M291,36h-1.6V24.2H291Z"/><path class="cls-1" d="M305.1,30.1a6.05,6.05,0,0,1-.4,2.4,6.15,6.15,0,0,1-1.2,1.9,5.67,5.67,0,0,1-1.8,1.2,7.4,7.4,0,0,1-4.8,0,5.67,5.67,0,0,1-1.8-1.2,6.15,6.15,0,0,1-1.2-1.9,6.37,6.37,0,0,1-.4-2.4,6.05,6.05,0,0,1,.4-2.4,6.15,6.15,0,0,1,1.2-1.9,4.39,4.39,0,0,1,1.8-1.2,8.6,8.6,0,0,1,2.4-.4,6.05,6.05,0,0,1,2.4.4,5.67,5.67,0,0,1,1.8,1.2,6.15,6.15,0,0,1,1.2,1.9A6.05,6.05,0,0,1,305.1,30.1Zm-1.6,0a6.45,6.45,0,0,0-.3-2,5.3,5.3,0,0,0-.8-1.5,3.81,3.81,0,0,0-1.3-.9,5,5,0,0,0-3.4,0,3,3,0,0,0-1.3.9,3.61,3.61,0,0,0-.8,1.5,6,6,0,0,0-.3,2,6.45,6.45,0,0,0,.3,2,5.3,5.3,0,0,0,.8,1.5,3.81,3.81,0,0,0,1.3.9,5,5,0,0,0,3.4,0,3,3,0,0,0,1.3-.9,3.61,3.61,0,0,0,.8-1.5A6.45,6.45,0,0,0,303.5,30.1Z"/><path class="cls-1" d="M308.5,24.2c.1,0,.1.1.2.2l6.8,8.9V24.1h1.4V36h-.8a.37.37,0,0,1-.3-.1c-.1,0-.2-.1-.3-.2l-6.8-8.9V36h-1.4V24.2h1.2Z"/><g id="_Group_2" data-name="&lt;Group&gt;"><path id="_Path_9" data-name="&lt;Path&gt;" class="cls-1" d="M32.1,8.2,25,31.1H22.2L16.4,13.6c-.1-.2-.1-.4-.2-.5s-.1-.4-.2-.6c-.1.2-.1.4-.2.6s-.1.4-.2.5L9.9,31.1H7.2L0,8.2H2.6a1.45,1.45,0,0,1,.7.2.71.71,0,0,1,.3.6L8.3,24.9c.1.3.1.6.2.9s.1.7.2,1.1a4.25,4.25,0,0,0,.2-1.1,2.39,2.39,0,0,1,.3-.9L14.7,9a1.76,1.76,0,0,1,.4-.5.84.84,0,0,1,.7-.2h.9a1.45,1.45,0,0,1,.7.2,1,1,0,0,1,.4.5l5.4,15.9.3.9a3.55,3.55,0,0,1,.2,1c.1-.4.1-.7.2-1s.1-.6.2-.9L28.7,9a1,1,0,0,1,.4-.5,1.45,1.45,0,0,1,.7-.2h2.3Z"/><path id="_Path_10" data-name="&lt;Path&gt;" class="cls-1" d="M41.9,31.1H38.8V8.2h3.1Z"/><path id="_Path_11" data-name="&lt;Path&gt;" class="cls-1" d="M62.7,11.8a1.38,1.38,0,0,1-.3.4c-.1.1-.2.1-.4.1a.86.86,0,0,1-.6-.3,7,7,0,0,0-.9-.6c-.5-.2-.9-.4-1.5-.6a5,5,0,0,0-1.9-.3,4.84,4.84,0,0,0-1.8.3,2.87,2.87,0,0,0-1.3.8,2.84,2.84,0,0,0-.8,1.1,3.19,3.19,0,0,0-.3,1.4,2.77,2.77,0,0,0,.5,1.6,4.26,4.26,0,0,0,1.2,1.1,7.5,7.5,0,0,0,1.8.8,15.87,15.87,0,0,1,2,.7,11.92,11.92,0,0,1,2,.8,17.39,17.39,0,0,1,1.8,1.1,4.81,4.81,0,0,1,1.2,1.6,6,6,0,0,1,.5,2.4,8.68,8.68,0,0,1-.5,2.8,5.74,5.74,0,0,1-1.5,2.3,6.08,6.08,0,0,1-2.4,1.5,8.45,8.45,0,0,1-3.3.6,11.09,11.09,0,0,1-4.1-.8A8.74,8.74,0,0,1,49,28.4l.9-1.5.3-.3a.6.6,0,0,1,.4-.1,1.69,1.69,0,0,1,.5.2c.2.1.4.3.6.4a5.55,5.55,0,0,0,.8.6,8.79,8.79,0,0,0,1,.6,5,5,0,0,0,1.3.4,7.77,7.77,0,0,0,1.6.2,6.45,6.45,0,0,0,2-.3,3.77,3.77,0,0,0,1.5-.9,3.81,3.81,0,0,0,.9-1.3,4.67,4.67,0,0,0,.3-1.7,2.86,2.86,0,0,0-.5-1.7,4.26,4.26,0,0,0-1.2-1.1,7.5,7.5,0,0,0-1.8-.8l-2-.6a11.92,11.92,0,0,1-2-.8,10.81,10.81,0,0,1-1.8-1.1,5.23,5.23,0,0,1-1.2-1.7,6.33,6.33,0,0,1-.5-2.6,6.87,6.87,0,0,1,.5-2.4,5.58,5.58,0,0,1,1.4-2,5.55,5.55,0,0,1,2.2-1.4A6.55,6.55,0,0,1,57.1,8a9.89,9.89,0,0,1,3.5.6,7.5,7.5,0,0,1,2.8,1.8Z"/><path id="_Compound_Path_7" data-name="&lt;Compound Path&gt;" class="cls-1" d="M93.7,35.9H91.1a3,3,0,0,1-1-.2,1.56,1.56,0,0,1-.8-.6l-4-4.4a12.45,12.45,0,0,1-4,.6A11.49,11.49,0,0,1,73.1,28a10.07,10.07,0,0,1-2.3-3.7,14.21,14.21,0,0,1,0-9.4,10.07,10.07,0,0,1,2.3-3.7,11.35,11.35,0,0,1,3.6-2.4A12.24,12.24,0,0,1,81.4,8a11.49,11.49,0,0,1,8.2,3.3A10.07,10.07,0,0,1,91.9,15a14,14,0,0,1,.8,4.7,15.53,15.53,0,0,1-.3,3.1,7.94,7.94,0,0,1-1,2.7,18.19,18.19,0,0,1-1.5,2.3,11.23,11.23,0,0,1-2,1.8ZM73.2,19.7a11.22,11.22,0,0,0,.6,3.8,7.62,7.62,0,0,0,1.6,2.8A6.76,6.76,0,0,0,78,28.1a8.81,8.81,0,0,0,3.3.6,9.34,9.34,0,0,0,3.4-.6,6.76,6.76,0,0,0,2.6-1.8,8.54,8.54,0,0,0,1.6-2.8,11.22,11.22,0,0,0,.6-3.8,11.22,11.22,0,0,0-.6-3.8,7.62,7.62,0,0,0-1.6-2.8,6.76,6.76,0,0,0-2.6-1.8,9,9,0,0,0-3.4-.6,8.81,8.81,0,0,0-3.3.6,6.76,6.76,0,0,0-2.6,1.8,7.08,7.08,0,0,0-1.6,2.8A11.22,11.22,0,0,0,73.2,19.7Z"/><path id="_Compound_Path_8" data-name="&lt;Compound Path&gt;" class="cls-1" d="M118.3,31.1h-2.4a1.45,1.45,0,0,1-.7-.2,1,1,0,0,1-.4-.5l-2.1-5.5H102.4l-2.1,5.5a1,1,0,0,1-.4.5,1.45,1.45,0,0,1-.7.2H96.8L106,8.2h3.1Zm-6.4-8.5-3.6-9.3c-.1-.3-.2-.6-.3-1l-.3-1.2a19.38,19.38,0,0,1-.7,2.2l-3.6,9.3Z"/><path id="_Compound_Path_9" data-name="&lt;Compound Path&gt;" class="cls-1" d="M141.5,31.1h-2.8a1.13,1.13,0,0,1-1.2-.7l-6-8.2a3.39,3.39,0,0,0-.6-.6,2.15,2.15,0,0,0-1-.2h-2.4V31h-3.1V8.2h6.5a14.29,14.29,0,0,1,3.8.4,6.36,6.36,0,0,1,2.6,1.3,4.81,4.81,0,0,1,1.5,2,7.51,7.51,0,0,1,.5,2.6,5.87,5.87,0,0,1-.4,2.3,7.24,7.24,0,0,1-1.1,1.9,6.23,6.23,0,0,1-1.8,1.4,8.54,8.54,0,0,1-2.4.9,2.4,2.4,0,0,1,1,1ZM130.9,19.3a8.75,8.75,0,0,0,2.4-.3,3.93,3.93,0,0,0,1.7-.9,4.51,4.51,0,0,0,1-1.4,5.84,5.84,0,0,0,.4-1.8,3.62,3.62,0,0,0-1.3-3.1,6.38,6.38,0,0,0-4-1h-3.4v8.7h3.2v-.2Z"/><path id="_Path_12" data-name="&lt;Path&gt;" class="cls-1" d="M159.5,11.8a1.38,1.38,0,0,1-.3.4c-.1.1-.2.1-.4.1a.86.86,0,0,1-.6-.3,7,7,0,0,0-.9-.6c-.4-.2-.8-.4-1.3-.6a5,5,0,0,0-1.9-.3,4.84,4.84,0,0,0-1.8.3,2.87,2.87,0,0,0-1.3.8,2.84,2.84,0,0,0-.8,1.1,3.19,3.19,0,0,0-.3,1.4,2.77,2.77,0,0,0,.5,1.6,4.26,4.26,0,0,0,1.2,1.1,7.5,7.5,0,0,0,1.8.8,15.87,15.87,0,0,1,2,.7,11.92,11.92,0,0,1,2,.8,17.39,17.39,0,0,1,1.8,1.1,4.81,4.81,0,0,1,1.2,1.6,6,6,0,0,1,.5,2.4,8.68,8.68,0,0,1-.5,2.8,5.74,5.74,0,0,1-1.5,2.3,6.08,6.08,0,0,1-2.4,1.5,8.45,8.45,0,0,1-3.3.6,11.09,11.09,0,0,1-4.1-.8,8.74,8.74,0,0,1-3.1-2.2l.9-1.5.3-.3a.6.6,0,0,1,.4-.1,1.69,1.69,0,0,1,.5.2c.2.1.4.3.6.4a5.55,5.55,0,0,0,.8.6,8.79,8.79,0,0,0,1,.6,5,5,0,0,0,1.3.4,7.77,7.77,0,0,0,1.6.2,6.45,6.45,0,0,0,2-.3,3.77,3.77,0,0,0,1.5-.9,3.81,3.81,0,0,0,.9-1.3,4.67,4.67,0,0,0,.3-1.7,2.86,2.86,0,0,0-.5-1.7,4.26,4.26,0,0,0-1.2-1.1,7.5,7.5,0,0,0-1.8-.8l-2-.6a11.92,11.92,0,0,1-2-.8,17.39,17.39,0,0,1-1.8-1.1,5.23,5.23,0,0,1-1.2-1.7,6.33,6.33,0,0,1-.5-2.6,6.87,6.87,0,0,1,.5-2.4,5.58,5.58,0,0,1,1.4-2,5.55,5.55,0,0,1,2.2-1.4,9.43,9.43,0,0,1,3-.5,9.89,9.89,0,0,1,3.5.6,7.5,7.5,0,0,1,2.8,1.8Z"/></g><line id="_Path_13" data-name="&lt;Path&gt;" class="cls-2" x1="178.2" x2="178.2" y2="39.6"/><path class="cls-1" d="M198,5.27a.8.8,0,0,1,.23.21l6.64,8.64c0-.14,0-.27,0-.4s0-.26,0-.38V5.22h1.36V16.68h-.78a.67.67,0,0,1-.31-.06.79.79,0,0,1-.24-.22l-6.63-8.63c0,.13,0,.26,0,.39s0,.25,0,.35v8.17h-1.36V5.22h.8A.69.69,0,0,1,198,5.27Z"/><path class="cls-1" d="M219.64,11a6.61,6.61,0,0,1-.41,2.36,5.41,5.41,0,0,1-1.15,1.85,5.15,5.15,0,0,1-1.79,1.2,6.42,6.42,0,0,1-4.61,0,5.15,5.15,0,0,1-1.78-1.2,5.42,5.42,0,0,1-1.15-1.85,6.63,6.63,0,0,1-.41-2.36,6.63,6.63,0,0,1,.41-2.36,5.47,5.47,0,0,1,1.15-1.86,5.19,5.19,0,0,1,1.78-1.21,6.38,6.38,0,0,1,4.61,0,5.18,5.18,0,0,1,1.79,1.21,5.46,5.46,0,0,1,1.15,1.86A6.61,6.61,0,0,1,219.64,11ZM218,11a5.84,5.84,0,0,0-.29-1.9,4,4,0,0,0-.82-1.42,3.54,3.54,0,0,0-1.28-.89,4.66,4.66,0,0,0-3.35,0,3.58,3.58,0,0,0-1.28.89,4,4,0,0,0-.82,1.42,5.82,5.82,0,0,0-.29,1.9,5.78,5.78,0,0,0,.29,1.89,4,4,0,0,0,.82,1.42,3.53,3.53,0,0,0,1.28.89,4.71,4.71,0,0,0,3.35,0,3.49,3.49,0,0,0,1.28-.89,4,4,0,0,0,.82-1.42A5.8,5.8,0,0,0,218,11Z"/><path class="cls-1" d="M222.86,5.27a.8.8,0,0,1,.23.21l6.64,8.64c0-.14,0-.27,0-.4s0-.26,0-.38V5.22h1.36V16.68h-.78a.67.67,0,0,1-.31-.06.79.79,0,0,1-.24-.22l-6.63-8.63c0,.13,0,.26,0,.39s0,.25,0,.35v8.17h-1.36V5.22h.8A.69.69,0,0,1,222.86,5.27Z"/><path class="cls-1" d="M233.26,11.28h4v1.21h-4Z"/><path class="cls-1" d="M246.47,5.22V6.48H241v4h4.7v1.26H241v4.93H239.4V5.22Z"/><path class="cls-1" d="M256.84,16.68h-1.2a.52.52,0,0,1-.34-.1.64.64,0,0,1-.19-.26L254,13.54h-5.14l-1.07,2.77a.62.62,0,0,1-.19.26.51.51,0,0,1-.34.11h-1.2l4.58-11.46h1.58Zm-7.51-4.26h4.28l-1.8-4.66a8.63,8.63,0,0,1-.34-1.08q-.09.33-.17.6t-.16.48Z"/><path class="cls-1" d="M265,5.22v1.3h-3.7V16.68h-1.55V6.52h-3.72V5.22Z"/><path class="cls-1" d="M275,16.68h-1.2a.52.52,0,0,1-.34-.1.64.64,0,0,1-.19-.26l-1.07-2.77H267.1L266,16.31a.62.62,0,0,1-.19.26.51.51,0,0,1-.34.11h-1.2l4.58-11.46h1.58Zm-7.51-4.26h4.28L270,7.76a8.63,8.63,0,0,1-.34-1.08q-.09.33-.17.6t-.16.48Z"/><path class="cls-1" d="M278,15.38h5v1.3h-6.51V5.22H278Z"/></g></g></svg>